<svg xmlns="http://www.w3.org/2000/svg" xmlns:xlink="http://www.w3.org/1999/xlink" width="63" height="62" viewBox="0 0 63 62"><defs><path id="3f43a" d="M547.65 981.94l-2.09-2.09 30.02-30.02-4.97-4.97c-.3-.3-.69-.45-1.1-.45-.4 0-.78.15-1.08.45l-31.64 31.65-2.1-2.09 31.65-31.64a4.48 4.48 0 0 1 6.35 0l12.04 12.03a4.47 4.47 0 0 1 0 6.34l-31.65 31.65-2.09-2.09 31.65-31.64c.3-.3.45-.69.45-1.1 0-.4-.15-.78-.45-1.08l-4.97-4.97zm-2.68 12.7c.6.62 1.08 1.34 1.1 2.3.02.75-.42 1.52-.99 1.91-.56.42-1.2.59-1.88.65l-11.97 1.02-.34.02h-.02a3.9 3.9 0 0 1-3.9-4.31l1.03-11.93c.06-.68.23-1.31.64-1.88.4-.57 1.17-1 1.92-.99.96.02 1.68.5 2.3 1.1zm-2.24 1.94l-11.8-11.8-1.01 11.71h-.02l.01.12c.05.66.32.93.98.98h.12z"/></defs><g><g transform="translate(-525 -940)"><use fill="#00c6bf" xlink:href="#3f43a"/></g></g></svg>