<svg xmlns="http://www.w3.org/2000/svg" xmlns:xlink="http://www.w3.org/1999/xlink" width="66" height="60" viewBox="0 0 66 60"><defs><path id="ypg7a" d="M1373 969v24c0 2.32-1.7 3.98-4.02 4h-30.6c-.77 0-1.4.63-1.41 1.4l.03 5.6h-3v-6c0-2.32 1.68-4 4-4h31c.76 0 1-.24 1-1v-24c0-.76-.24-2-1-2h-14a21.71 21.71 0 0 1-3.42 10.09c-1.78 2.75-4.37 4.68-7.4 4.9v.05h-.55l.37-.04h-15c-.6 1.57-2.21 3-4 3h-4c-2.32 0-4-1.68-4-4v-6l-5.78-.09a1.4 1.4 0 0 1 0-2.8l5.78-.11v-12h-6c-.77 0-1-.84-1-2 0-.1.12-1 1-1h6v-7c0-2.32 1.68-4 4-4h4c2.06 0 3.64 2.04 4 4h15c3.02.22 5.8 2 7.58 4.74 1.7 2.62 3.2 5.5 3.42 9.26h14c2.32 0 4 2.68 4 5zm-46.25-18.44c0-.76-.99-1.56-1.75-1.56h-3c-.76 0-1.9.8-1.9 1.56v29.96c0 .76.63 1.4 1.4 1.4h3.85c.76 0 1.4-.64 1.4-1.4zM1341 979v-26h-11v26zm10.8-13.08c.01-3.82-1.01-7.26-2.57-9.65A7.02 7.02 0 0 0 1344 953v26a7.26 7.26 0 0 0 5.23-3.44c1.56-2.39 2.58-5.82 2.58-9.64z"/></defs><g><g transform="translate(-1308 -945)"><use fill="#00c6bf" xlink:href="#ypg7a"/></g></g></svg>